# xmcd
#
# Track frame offsets: 
#        150
#        14737
#        37490
#        61877
#        78215
#        113133
#        168035
#        190447
#        206709
#        237755
#        261473
#        281974
#        303270
#
# Disc length: 4454 seconds
#
# Revision: 0
# Processed by: cddbd v1.5.1PL2 Copyright (c) Steve Scherf et al.
# Submitted via: ExactAudioCopy v0.95b2
#
DISCID=be11640d
DTITLE=Savoy Brown - Skin`n`Bone and Wire Fire
DYEAR=1975
DGENRE=blues
TTITLE0=Get On Up And Do It
TTITLE1=Part Time Lady
TTITLE2=This Day Is Gonna Be Our Last
TTITLE3=She`s The One
TTITLE4=Skin`n`Bone
TTITLE5=Walkin` And Talkin`
TTITLE6=Put Your Hands Together
TTITLE7=Strangest Blues
TTITLE8=Here Comes The Music
TTITLE9=Hero To Zero
TTITLE10=Deep Water
TTITLE11=Can`t Get On
TTITLE12=Born Into Pain
EXTD=
EXTT0=
EXTT1=
EXTT2=
EXTT3=
EXTT4=
EXTT5=
EXTT6=
EXTT7=
EXTT8=
EXTT9=
EXTT10=
EXTT11=
EXTT12=
PLAYORDER=
